<?xml version="1.0" standalone="no"?>
<!DOCTYPE svg PUBLIC "-//W3C//DTD SVG 20010904//EN"
 "http://www.w3.org/TR/2001/REC-SVG-20010904/DTD/svg10.dtd">
<svg version="1.0" xmlns="http://www.w3.org/2000/svg"
 width="200.000000pt" height="200.000000pt" viewBox="0 0 200.000000 200.000000"
 preserveAspectRatio="xMidYMid meet">

<g transform="translate(0.000000,200.000000) scale(0.100000,-0.100000)"
fill="#000000" stroke="none">
<path d="M390 1178 c-57 -128 -116 -260 -131 -293 -36 -78 -129 -288 -129
-292 0 -2 42 -3 93 -3 l93 0 34 78 c19 42 48 109 66 147 18 39 58 129 89 200
31 72 60 133 64 137 3 4 49 -121 101 -277 l95 -285 95 0 96 0 133 300 c73 165
136 300 140 300 3 0 65 -134 138 -298 l132 -297 97 0 98 0 133 400 c72 220
132 403 132 408 1 4 -41 7 -92 7 l-93 0 -73 -222 c-40 -123 -83 -251 -96 -286
l-22 -63 -95 213 c-53 117 -111 246 -128 286 l-33 72 -97 0 -97 0 -123 -277
c-67 -153 -126 -281 -129 -285 -4 -4 -49 121 -101 277 l-95 285 -96 0 -96 0
-103 -232z"/>
<path d="M870 890 c0 -5 5 -10 11 -10 5 0 7 5 4 10 -3 6 -8 10 -11 10 -2 0 -4
-4 -4 -10z"/>
</g>
</svg>
